<?xml version="1.0" encoding="UTF-8"?>
<svg data-bbox="0 0 468.663 700" xmlns="http://www.w3.org/2000/svg" viewBox="0 0 469 700" height="700" width="469" data-type="color">
    <g>
        <path fill="#027E60" d="M.013 699.993V0c1.973.327 2.065 1.843 2.575 2.927 15.48 32.764 32.247 64.926 46.799 98.133 20.825 47.518 35.396 96.938 43.976 148.063 3.764 22.419 6.005 45.034 7.312 67.78 1.137 19.773 1.326 39.527.496 59.241-1.28 30.522-4.933 60.828-10.729 90.88-9.71 50.308-25.425 98.669-46.74 145.2-9.664 21.099-20.146 41.826-30.267 62.717a2733 2733 0 0 1-10.887 22.223c-.529 1.059-.575 2.62-2.548 2.836z" data-color="1"/>
        <path fill="#027E60" d="M468.657.516v698.916c-1.229.457-1.595-.399-1.948-1.144-19.747-41.526-41.578-82.091-58.031-125.14-14.115-36.932-24.864-74.825-31.738-113.782a646 646 0 0 1-8.181-66.344c-1.914-26.934-1.967-53.895-.49-80.764 2.157-39.194 8.482-77.877 18.349-115.927 11.193-43.172 26.679-84.724 46.4-124.734 11.318-22.962 22.21-46.133 33.306-69.199.353-.725.83-1.392 1.248-2.09.366.071.725.136 1.091.208z" data-color="1"/>
        <path fill="#027E60" d="M237.869 272.091c8.037 16.244 18.009 30.639 23.537 47.178 9.076 27.157 6.403 53.405-7.319 78.543-4.365 7.991-8.573 16.068-12.892 24.079-1.006 1.869-1.516 4.071-3.627 5.652-3.678-3.803-5.253-8.834-7.723-13.291-4.313-7.769-8.796-15.486-12.422-23.576-13.173-29.404-11.945-58.482 2.914-87.005 5.11-9.808 10.403-19.518 15.63-29.26.281-.53.765-.948 1.895-2.314z" data-color="1"/>
        <path fill="#027E60" d="M138.482 455.765V243.993c4.209 5.352 6.378 10.742 9.057 15.793 6.495 12.252 13.559 24.217 19.296 36.861 6.044 13.33 9.455 27.287 10.834 41.905 2.653 28.176-3.862 54.111-17.551 78.595-6.241 11.161-12.043 22.563-18.094 33.835-.876 1.634-1.157 3.724-3.542 4.783" data-color="1"/>
        <path fill="#027E60" d="M336.642 244.215v211.968c-4.045-4.495-5.835-9.324-8.129-13.781-7.926-15.408-17.499-29.992-23.432-46.387-12.311-34.005-11.409-67.729 3.823-100.531 7.932-17.088 17.446-33.443 26.261-50.125.157-.294.569-.451 1.477-1.144" data-color="1"/>
    </g>
</svg>
